Lawrence of Arabia (1962)

Director: David Lean

Lawrence of Arabia is often regarded as David Lean's masterpiece and contains some of the most amazing photography ever captured on film.

The plot involves the true story of T E Lawrence, a young English officer who led the Arabs to victory in their revolt against their Turkish imperial master during the First World War but who then after achieving so much fame and glory died in a motorbike accident that could have been suicide.

The most famous features of the film are the photography of the desert and the music. Maurice Jarre's famous theme is now synomous with anything dry and deserty. David Lean spent several years in Jordan and Morocco making the film and is said to have spent days waiting for the "right" sunrise. However his perfectionism paid off and the shots are fantastic with wonderful pieces of editing.

However Lawrence of Arabia is not just a sandy visual feast. The performances are also superb. Claude Rains is suitably suave as the diplomat and Jack Hawkins appropriately brusque as General Allenby. Alec Guiness is almost unrecognisible in his amazing turn as Prince Feisal. However it is the performances of the two young leads (Omar Sharif as Ali and Peter O'Toole as Lawrence himself) which deserve the most credit. Neither actor had starred in an international film before Lawrence of Arabia but they proved themselves worthy of their casting and, of course, went on to have very successful careers.

Through their subtle performances, O'Toole and Sharif make one of the most interesting aspects of the film the interaction of the two main characters. When Lawrence first meets Ali, the latter guns down a fellow Arab for drinking at a well belonging to Ali. Lawrence accuses Ali of being "silly, barbarous and cruel" and yet ultimately as the plot unfolds it is shown that it is Ali who is the more humane and rational of the two for, as his career takes off, Lawrence becomes caught up in his own glory that increasingly brings out his sadism and near insanity. Lawrence of Arabia exemplifies Lean's amazing eye for beautiful shots and brilliant editing, but is also a sensitive study of an enigmatic and tragic figure.

"A truly majestic piece of cinema *****" - Empire 

Media Info, (Sample Disc 1),:
General
Complete name                    : J:\Seeding\Lawrence of Arabia (1962)[DVDRip][big_dad_e™]\Disc 1.AVI
Format                           : AVI
Format/Info                      : Audio Video Interleave
File size                        : 1.78 GiB
Duration                         : 2h 19mn
Overall bit rate                 : 1 829 Kbps

Video
ID                               : 0
Format                           : MPEG-4 Visual
Format profile                   : Simple@L3
Format settings, BVOP            : No
Format settings, QPel            : No
Format settings, GMC             : No warppoints
Format settings, Matrix          : Default (H.263)
Codec ID                         : XVID
Codec ID/Hint                    : XviD
Duration                         : 2h 19mn
Bit rate                         : 1 496 Kbps
Width                            : 706 pixels
Height                           : 376 pixels
Display aspect ratio             : 2.225
Frame rate                       : 23.976 fps
Color space                      : YUV
Chroma subsampling               : 4:2:0
Bit depth                        : 8 bits
Scan type                        : Progressive
Bits/(Pixel*Frame)               : 0.235
Stream size                      : 1.46 GiB (82%)
Writing library                  : XviD 

Audio
ID                               : 1
Format                           : MPEG Audio
Format version                   : Version 1
Format profile                   : Layer 3
Mode                             : Joint stereo
Codec ID                         : 55
Codec ID/Hint                    : MP3
Duration                         : 2h 19mn
Bit rate mode                    : Constant
Bit rate                         : 320 Kbps
Channel(s)                       : 2 channels
Sampling rate                    : 48.0 KHz
Stream size                      : 319 MiB (17%)
Alignment                        : Split accross interleaves
Interleave, duration             : 24 ms (0.58 video frame)
Interleave, preload duration     : 407 ms
Writing library                  : LAME3.98

File Scan:
Malwarebytes' Anti-Malware 1.50.1.1100
www.malwarebytes.org

Database version: 5958
3/4/2011 8:24:23 PM
mbam-log-2011-03-04 (20-24-23).txt

Scan type: Quick scan
Objects scanned: 6
Time elapsed: 10 second(s)

Memory Processes Infected: 0
Memory Modules Infected: 0
Registry Keys Infected: 0
Registry Values Infected: 0
Registry Data Items Infected: 0
Folders Infected: 0
Files Infected: 0

Memory Processes Infected:
(No malicious items detected)

Memory Modules Infected:
(No malicious items detected)

Registry Keys Infected:
(No malicious items detected)

Registry Values Infected:
(No malicious items detected)

Registry Data Items Infected:
(No malicious items detected)

Folders Infected:
(No malicious items detected)

Files Infected:
(No malicious items detected)

When using TPB please read these important notes:
  
01- Anti-malware apps may warn about keygens, patches, cracks, etc., because of 
    their capabilities, (generating codes, etc.). Sometimes they're added to 
    the virus/spyware database and will be detected as malware. If you don't trust
    the keygens, patches, cracks, etc., don't use them. 
    
02- Before running .exe-files, keygens, patches, cracks, etc., always check first 
    if they can be unpacked. Often some third party added a virus to the 
    original file, repacked it and uploaded it again.

03- Letting anti-malware apps send scan results to their companies can cause
    keygens, patches, cracks, etc., to be added to their virus-database.

04- Firewalls which are set to automatically determine connections will allow 
    apps & malware!. Avoid this by manually configuring your firewall.

05- Usually (new) torrents with many downloads and seeders in a brief period is
    suspicious! Torrents with the Skull & Crossbones icon are trusted.

06- Some people use multiple accounts and post fake comments 
    and/or files trying to spread confusion. They seldom seriously
    comment or have any torrents, or a just a few to look passable.

07- Clicking on unknown links can cause malware to be installed on your machine.
  
08- In general often there are more fake and negative comments than reliable and
    positive comments.

09- In some countries uploading/downloading copyright protected material is 
    forbidden, but showing some appreciation to reliable up-loaders is not.

10- Posting fake and negative comments or fake/infected uploads on TPB can result
    in getting banned from TPB!

Requests?  Find me on SuprBay. http://forum.suprbay.org
 

For reporting bad or suspicious torrents:  
http://forum.suprbay.org/forumdisplay.php?fid=29

For more of my torrents: 
https://thepiratebay.org/user/big_dad_e/  (Secured)

All torrents scanned with:
Norton Anti-virus
Malwarebytes' Anti-malware
 
http://www.pirate-party.us/

ALWAYS SEED & THANKS SEEDERS!